<?xml version="1.0" standalone="no"?>
<!DOCTYPE svg PUBLIC "-//W3C//DTD SVG 20010904//EN"
 "http://www.w3.org/TR/2001/REC-SVG-20010904/DTD/svg10.dtd">
<svg version="1.0" xmlns="http://www.w3.org/2000/svg"
 width="1024.000000pt" height="1024.000000pt" viewBox="0 0 1024.000000 1024.000000"
 preserveAspectRatio="xMidYMid meet">

<g transform="translate(0.000000,1024.000000) scale(0.100000,-0.100000)"
fill="#000000" stroke="none">
<path d="M5047 8381 l-38 -6 38 -45 c20 -25 42 -48 48 -52 5 -3 25 -20 43 -36
18 -17 60 -38 95 -48 56 -17 59 -19 30 -22 -18 -2 -33 -7 -33 -11 0 -16 179
-180 258 -235 46 -32 81 -60 79 -63 -3 -2 -29 5 -58 17 -67 25 -67 25 -42 -2
37 -40 132 -198 153 -256 12 -32 33 -76 47 -100 31 -54 23 -65 -18 -26 l-30
29 17 -40 c9 -22 31 -63 50 -92 43 -66 43 -76 -1 -33 -19 18 -38 31 -41 27 -6
-5 36 -83 72 -134 9 -13 12 -23 6 -23 -6 0 -14 5 -17 10 -3 6 -14 10 -22 10
-12 0 -7 -9 17 -32 18 -18 41 -46 51 -62 l17 -28 7 77 c11 117 0 351 -20 410
-9 28 -18 59 -20 70 -9 41 -95 202 -143 269 -67 92 -141 168 -155 159 -7 -3
-9 -2 -4 2 4 5 -7 24 -25 42 -57 59 -13 35 64 -34 168 -152 268 -306 321 -493
18 -63 21 -101 21 -240 -1 -158 -2 -169 -33 -265 -17 -55 -43 -124 -56 -154
-27 -59 -29 -65 -16 -57 13 8 56 103 72 160 10 34 32 68 72 112 58 64 63 73
26 54 -25 -14 -24 2 2 26 19 17 59 84 59 100 0 3 -12 -1 -26 -11 -36 -23 -38
-15 -7 31 34 49 52 135 46 216 -2 35 -6 65 -8 67 -2 2 -12 -13 -21 -33 -24
-49 -33 -45 -23 10 16 84 -26 249 -89 353 l-21 34 -6 -37 c-9 -43 -25 -48 -25
-7 0 48 -27 98 -90 163 l-61 63 7 -47 c7 -57 -6 -63 -25 -12 -19 52 -107 135
-184 172 -77 37 -87 39 -62 12 24 -26 13 -36 -17 -17 -60 39 -209 70 -281 58z
m423 -365 c0 -2 -7 -7 -16 -10 -8 -3 -12 -2 -9 4 6 10 25 14 25 6z"/>
<path d="M4948 7982 c-16 -3 -16 -5 -3 -18 12 -13 15 -52 15 -219 0 -184 -2
-205 -17 -214 -14 -8 -5 -10 37 -10 43 0 50 2 33 9 -22 9 -23 15 -24 122 0 62
-2 141 -3 176 -2 34 0 62 4 62 7 0 145 -180 244 -317 63 -89 66 -83 66 162 0
202 1 216 20 235 l20 20 -57 0 c-53 0 -56 -1 -33 -13 25 -13 25 -13 28 -170 1
-86 -1 -157 -5 -157 -5 1 -38 45 -75 98 -38 53 -93 130 -123 170 -57 75 -63
77 -127 64z"/>
<path d="M4680 7950 c-275 -52 -566 -169 -810 -323 -495 -314 -861 -798 -1019
-1351 -54 -187 -91 -404 -91 -528 l0 -48 35 0 c35 0 35 0 35 44 0 24 7 100 16
168 112 873 714 1607 1560 1898 107 36 295 81 402 95 49 7 52 8 52 36 0 28 -2
29 -42 28 -24 -1 -86 -9 -138 -19z"/>
<path d="M5974 7808 c3 -13 6 -30 6 -39 0 -10 20 -25 53 -39 28 -12 74 -33
100 -46 26 -14 53 -22 60 -18 7 4 9 4 5 -1 -4 -4 27 -29 70 -55 189 -113 300
-198 441 -334 353 -343 595 -813 676 -1313 8 -51 15 -114 15 -140 0 -27 3 -65
6 -85 6 -35 9 -38 40 -38 40 0 39 -12 19 170 -17 165 -44 294 -95 454 -173
539 -516 989 -991 1298 -71 46 -290 161 -359 188 l-53 21 7 -23z"/>
<path d="M4780 7775 c-497 -77 -983 -354 -1312 -745 -198 -235 -358 -535 -442
-831 -26 -92 -61 -288 -72 -407 l-6 -73 33 3 34 3 16 135 c37 298 134 585 288
848 118 202 335 443 533 593 300 226 571 340 988 416 41 7 45 11 45 37 0 16
-4 30 -10 32 -5 1 -48 -4 -95 -11z"/>
<path d="M5390 7747 l0 -33 68 -10 c37 -6 68 -10 70 -9 2 1 -6 18 -18 38 -14
24 -30 37 -52 41 -60 12 -68 9 -68 -27z"/>
<path d="M6008 7571 c3 -33 9 -40 45 -58 80 -39 227 -131 324 -204 438 -328
738 -838 817 -1386 9 -61 16 -129 16 -151 0 -41 11 -52 51 -52 22 0 23 5 9
138 -43 398 -189 763 -439 1096 -125 166 -324 353 -505 475 -79 54 -237 144
-288 165 l-33 14 3 -37z"/>
<path d="M5056 7357 c-258 -363 -557 -760 -565 -750 -5 4 -35 44 -68 88 -81
108 -86 112 -107 80 -21 -31 -79 -97 -246 -275 -69 -74 -147 -157 -172 -184
l-45 -49 -45 41 c-25 23 -47 42 -50 42 -3 0 -67 -61 -144 -136 -159 -156 -327
-306 -429 -383 -38 -30 -72 -55 -75 -58 -12 -11 112 42 183 79 79 41 165 103
302 217 42 35 79 61 82 58 11 -12 -20 -78 -69 -148 l-51 -72 39 23 c81 48 152
109 264 225 64 66 149 154 189 195 l72 75 -7 -49 c-4 -30 -3 -47 3 -43 5 3 43
58 84 121 41 64 76 116 79 116 4 0 5 -139 1 -200 -1 -9 -21 -44 -46 -78 -25
-34 -41 -62 -36 -62 4 0 28 7 51 15 24 8 45 14 47 12 4 -5 -57 -115 -89 -160
-13 -18 -47 -60 -76 -95 -52 -61 -53 -63 -20 -46 105 53 264 199 330 304 19
30 60 108 91 174 59 123 235 377 361 520 l35 39 5 -34 c3 -19 7 -47 9 -64 2
-25 15 -6 79 124 42 84 79 155 81 157 2 3 2 -69 -1 -159 -2 -90 -2 -193 2
-228 7 -65 7 -65 36 -61 66 9 43 -65 -70 -234 -39 -59 -69 -108 -67 -110 2 -2
43 12 92 31 49 19 90 35 91 35 2 0 9 -18 15 -40 l12 -40 49 70 c27 39 54 70
60 70 6 0 35 -18 65 -41 l54 -40 16 38 c21 48 20 127 -1 178 l-17 40 40 -39
c104 -101 106 -240 6 -349 l-35 -38 61 -57 c78 -72 160 -134 224 -169 l50 -27
-59 65 c-88 97 -86 91 -72 186 7 46 14 85 17 87 2 2 18 -16 34 -40 17 -24 33
-44 37 -44 4 0 8 30 10 68 l3 67 45 -79 c64 -111 97 -154 165 -209 73 -59 326
-230 332 -224 5 5 -100 186 -196 336 -39 61 -71 115 -71 119 1 4 19 19 40 34
l40 28 16 -31 c60 -117 147 -230 254 -331 62 -59 115 -106 117 -104 2 1 -9 29
-23 62 -14 32 -32 76 -40 97 l-14 38 39 -30 c21 -17 44 -37 51 -46 23 -28 28
-16 14 32 l-14 47 22 -21 c66 -59 470 -294 576 -334 32 -12 36 -16 -69 63
-117 88 -298 251 -454 407 -71 72 -133 131 -138 131 -4 0 -27 -20 -50 -45 -24
-25 -46 -45 -49 -45 -3 0 -59 61 -124 135 -64 74 -118 135 -119 135 -2 0 -26
-32 -56 -70 -29 -39 -58 -69 -63 -67 -13 4 -141 183 -277 385 -60 89 -114 162
-119 162 -5 0 -19 -13 -32 -30 -12 -16 -25 -30 -29 -30 -4 0 -92 123 -195 273
-103 149 -190 275 -193 279 -3 4 -42 -44 -85 -105z"/>
<path d="M5638 7076 c-15 -30 -24 -57 -21 -60 12 -12 23 -5 23 14 0 11 7 37
15 57 24 56 12 49 -17 -11z"/>
<path d="M4580 7081 c5 -11 10 -29 10 -40 0 -11 6 -26 13 -33 8 -7 12 -20 9
-30 -2 -10 1 -19 7 -19 26 -3 30 -4 38 -12 4 -5 2 -7 -6 -5 -8 2 -15 -7 -17
-21 -3 -18 -1 -22 12 -17 8 3 18 6 20 6 12 0 1 43 -16 60 -11 11 -17 20 -14
20 3 0 -2 12 -10 28 -9 15 -20 39 -26 55 -5 15 -14 27 -20 27 -7 0 -8 -6 0
-19z"/>
<path d="M6289 7074 c-13 -14 -61 -56 -106 -92 -46 -36 -83 -69 -83 -74 0 -5
-4 -7 -9 -4 -5 4 -11 3 -13 -1 -3 -9 -94 -85 -173 -147 -27 -22 -54 -43 -58
-47 -8 -6 79 -137 112 -169 13 -11 13 -12 1 -5 -13 9 -13 8 0 -10 8 -11 15
-21 16 -23 2 -3 44 69 86 148 51 95 127 228 180 316 87 142 93 158 47 108z"/>
<path d="M3937 7059 c12 -19 51 -83 87 -142 36 -60 66 -110 66 -112 0 -2 17
-31 37 -65 l37 -62 52 58 c30 33 54 62 54 65 0 6 -84 76 -273 228 -73 57 -78
60 -60 30z"/>
<path d="M4594 6867 c-71 -39 -144 -89 -144 -98 0 -5 12 -23 28 -40 l28 -31
42 54 c24 29 43 58 44 63 0 6 9 16 19 23 21 15 44 52 32 52 -4 -1 -26 -11 -49
-23z"/>
<path d="M5793 6763 c9 -9 20 -13 24 -9 4 4 1 11 -7 16 -25 16 -35 11 -17 -7z"/>
<path d="M4845 6665 c-20 -44 -48 -102 -60 -130 -13 -27 -40 -78 -59 -113
l-36 -62 59 30 c50 25 68 41 115 110 l55 80 -18 83 -19 82 -37 -80z"/>
<path d="M5510 6508 c-1 -41 -36 -103 -84 -145 -26 -23 -120 -79 -209 -125
-245 -126 -315 -191 -304 -284 9 -87 80 -135 303 -209 156 -51 199 -73 216
-110 9 -19 8 -29 -6 -49 -21 -33 -52 -49 -194 -97 -222 -77 -312 -138 -312
-215 0 -106 82 -150 490 -263 140 -39 197 -66 216 -104 14 -25 13 -31 -3 -60
-39 -66 -170 -115 -508 -187 -537 -115 -700 -166 -897 -284 -231 -138 -352
-334 -318 -517 54 -292 443 -537 955 -605 152 -20 495 -15 630 10 138 26 313
72 422 112 104 38 363 162 401 191 21 18 19 18 -85 10 -171 -12 -606 -11 -743
2 -258 25 -532 81 -680 139 -137 54 -244 133 -279 205 -50 103 -9 239 98 323
125 98 214 132 613 233 564 144 758 244 758 392 0 42 -5 55 -37 90 -70 77
-158 110 -464 174 -235 49 -312 76 -347 120 -27 34 -27 45 -1 79 26 33 74 58
195 102 178 64 264 122 264 177 0 33 -35 83 -78 112 -21 14 -88 43 -150 65
-192 67 -265 101 -304 141 -81 79 -36 140 195 272 126 72 187 121 223 182 23
40 45 145 30 145 -3 0 -6 -10 -6 -22z m-540 -468 c-11 -21 -20 -54 -20 -72 0
-25 -3 -29 -10 -18 -12 19 -3 55 22 98 27 45 33 40 8 -8z m105 -160 c40 -25
44 -30 14 -23 -30 8 -99 77 -99 99 0 14 7 9 25 -18 13 -20 40 -46 60 -58z
m405 -170 c5 0 25 -14 45 -31 35 -31 48 -80 25 -94 -7 -4 -9 2 -4 19 8 33 -15
64 -69 94 -23 13 -34 21 -24 18 10 -3 23 -6 27 -6z m4 -175 c-28 -22 -40 -18
-13 4 13 11 26 17 28 15 3 -2 -4 -11 -15 -19z m-489 -215 c-21 -41 -19 -55 16
-95 38 -42 24 -47 -16 -5 -33 35 -37 80 -10 110 25 28 28 25 10 -10z m92 -22
c0 -18 3 -42 7 -53 8 -20 7 -20 -8 -1 -16 20 -22 67 -9 79 11 11 12 9 10 -25z
m553 -312 c50 -26 86 -76 75 -104 -6 -14 -9 -12 -16 12 -12 42 -37 66 -104 98
-38 18 -49 27 -30 23 17 -3 50 -17 75 -29z m225 -12 c14 -9 34 -32 46 -50 29
-47 19 -93 -28 -141 -38 -37 -206 -123 -239 -122 -11 0 1 8 26 19 72 29 139
70 180 109 62 59 65 112 10 169 -33 35 -32 40 5 16z m-435 -294 c-38 -25 -344
-100 -356 -87 -3 3 75 25 173 49 201 51 204 51 183 38z m-161 -145 c-3 -2 -86
-23 -184 -46 -99 -23 -218 -54 -265 -69 -47 -16 -94 -31 -105 -35 -50 -16 68
41 136 66 86 31 435 102 418 84z m-819 -149 c0 -2 -17 -12 -37 -21 -71 -33
-214 -138 -259 -189 -63 -72 -95 -145 -104 -236 -5 -60 -8 -70 -14 -47 -15 50
-2 158 24 212 47 95 173 196 324 262 51 22 66 27 66 19z m42 -210 c-136 -155
-46 -368 208 -492 44 -21 77 -40 75 -42 -8 -8 -123 32 -186 64 -209 110 -258
311 -115 467 42 47 58 49 18 3z m-22 -601 c41 -21 127 -57 190 -81 128 -48
120 -58 -16 -18 -107 31 -204 80 -264 135 -28 26 -34 33 -15 21 17 -11 64 -36
105 -57z m174 -170 c118 -33 328 -74 431 -81 115 -9 87 -23 -34 -18 -205 10
-388 53 -533 125 -77 39 -82 53 -9 23 33 -13 99 -35 145 -49z"/>
<path d="M6470 6480 c-8 -5 -44 -21 -80 -35 -87 -34 -98 -41 -83 -56 8 -8 34
3 105 45 51 31 89 56 83 56 -5 0 -17 -5 -25 -10z"/>
<path d="M3825 6436 c58 -38 71 -43 78 -30 11 19 13 17 -53 42 -95 35 -97 35
-25 -12z"/>
<path d="M5163 6081 c-30 -27 -33 -36 -33 -85 0 -55 1 -56 40 -76 l40 -20 -1
57 c0 32 -4 80 -7 106 l-7 48 -32 -30z"/>
<path d="M4640 5944 c-47 -8 -245 -39 -440 -70 -712 -111 -1732 -278 -1780
-291 -20 -5 -14 -8 30 -13 133 -17 1502 -234 2118 -336 151 -25 275 -44 277
-42 2 2 -1 22 -7 44 -11 38 -9 46 19 95 17 31 53 72 84 97 30 24 80 64 112 90
75 61 82 63 74 22 -6 -27 -4 -31 9 -26 9 3 27 9 41 12 20 5 23 11 19 30 -7 28
-3 29 29 8 20 -13 31 -14 57 -5 17 6 40 19 50 28 22 20 24 48 3 39 -8 -3 -14
0 -12 7 5 24 -40 17 -78 -13 -44 -35 -53 -28 -35 26 7 19 10 37 8 39 -6 5 -80
35 -88 35 -5 0 -6 -27 -3 -60 4 -38 2 -60 -5 -60 -13 0 -151 99 -218 156 -28
24 -77 80 -110 124 -32 44 -61 79 -64 79 -3 -1 -43 -8 -90 -15z"/>
<path d="M5429 5897 c-23 -26 -40 -49 -38 -51 2 -2 35 -15 73 -30 84 -33 150
-79 176 -122 26 -41 26 -107 0 -150 -18 -29 -90 -86 -123 -97 -7 -2 16 -31 50
-65 35 -34 79 -86 99 -117 25 -40 40 -55 52 -51 9 3 384 66 832 141 448 75
887 149 975 165 88 16 197 34 242 41 46 7 81 14 79 16 -8 8 -871 148 -1286
208 -52 8 -268 42 -480 75 -534 85 -562 89 -588 87 -13 -1 -39 -21 -63 -50z"/>
<path d="M2770 5434 c0 -59 35 -254 69 -386 119 -462 393 -893 771 -1213 86
-72 223 -175 234 -175 11 0 -49 115 -67 129 -240 178 -472 433 -620 683 -108
181 -206 410 -253 591 -22 85 -64 324 -64 364 0 26 -4 33 -19 33 -11 0 -26 3
-35 6 -13 5 -16 -1 -16 -32z"/>
<path d="M7424 5453 c-19 -4 -23 -15 -33 -86 -19 -135 -61 -314 -102 -442 -72
-222 -235 -520 -386 -710 -141 -174 -383 -393 -560 -504 l-48 -31 40 0 c88 0
111 10 221 97 481 382 792 903 888 1488 34 207 35 199 -20 188z"/>
<path d="M2965 5396 c54 -422 238 -842 504 -1149 111 -128 286 -295 297 -284
4 4 11 30 15 59 20 126 133 281 274 375 197 132 427 211 884 303 355 72 464
109 490 167 22 48 -26 77 -229 137 -69 21 -170 59 -225 86 -63 30 -121 51
-155 55 -30 3 -203 31 -385 61 -181 30 -499 81 -705 114 -206 33 -464 75 -573
93 l-198 33 6 -50z"/>
<path d="M7175 5414 c-38 -7 -353 -61 -700 -119 -346 -59 -658 -111 -693 -117
-74 -13 -70 -25 18 -53 241 -77 338 -224 243 -370 -81 -125 -244 -199 -838
-381 -141 -43 -280 -101 -337 -140 -157 -109 -187 -216 -89 -314 96 -96 290
-165 576 -205 135 -20 488 -38 606 -33 89 4 102 8 165 43 571 313 979 854
1107 1470 36 170 43 235 26 234 -8 -1 -45 -8 -84 -15z"/>
<path d="M5370 5384 c-119 -47 -150 -64 -150 -85 0 -43 68 -67 329 -118 58
-12 107 -19 109 -16 15 15 -110 181 -171 227 l-33 26 -84 -34z"/>
<path d="M3962 2873 c-31 -6 -63 -24 -98 -53 -51 -43 -67 -79 -71 -155 -4 -60
-1 -76 20 -115 94 -173 357 -154 411 29 25 85 16 155 -25 202 -12 13 -26 31
-33 40 -28 39 -136 67 -204 52z m133 -43 c44 -41 59 -88 59 -181 -1 -67 -5
-96 -22 -130 -55 -114 -186 -102 -239 21 -19 46 -22 162 -4 223 19 67 67 100
134 94 31 -3 56 -12 72 -27z"/>
<path d="M5907 2863 c-26 -86 -159 -391 -177 -405 -22 -18 -22 -18 26 -17 27
0 43 3 37 6 -18 7 -15 51 5 93 l17 35 81 3 81 3 16 -38 c27 -65 30 -83 13 -89
-32 -12 -15 -22 37 -19 103 4 100 3 82 21 -8 9 -25 34 -36 57 -23 44 -112 258
-136 325 -15 43 -37 55 -46 25z m28 -173 c15 -36 29 -71 32 -77 4 -10 -13 -13
-66 -13 -39 0 -71 3 -71 7 0 20 64 163 71 156 4 -4 19 -37 34 -73z"/>
<path d="M7057 2873 c-9 -16 -137 -330 -137 -336 0 -16 18 -5 28 18 11 24 16
25 92 25 l81 0 19 -46 c25 -56 25 -81 3 -87 -24 -6 52 -11 124 -8 27 1 27 1 7
15 -22 16 -49 73 -139 289 -54 127 -67 149 -78 130z m18 -180 c17 -43 31 -81
33 -85 2 -5 -29 -8 -68 -8 -39 0 -70 4 -68 8 2 4 16 42 32 85 16 42 32 77 35
77 4 0 20 -35 36 -77z"/>
<path d="M8044 2866 c-17 -8 -41 -27 -53 -44 -46 -65 -14 -147 75 -192 108
-54 130 -80 111 -134 -13 -39 -65 -60 -114 -47 -41 12 -73 37 -73 60 0 9 -5
23 -10 31 -7 11 -10 1 -10 -35 0 -49 2 -52 33 -63 45 -16 130 -15 172 2 40 17
75 68 75 109 0 51 -31 86 -117 135 -62 34 -85 53 -92 74 -20 56 15 98 81 98
44 0 75 -23 83 -60 10 -44 22 -37 21 11 -1 41 -2 42 -46 55 -57 17 -96 17
-136 0z"/>
<path d="M1910 2822 l0 -47 18 35 c16 33 21 35 70 38 l52 3 0 -188 c0 -103 -4
-193 -8 -199 -4 -6 -14 -13 -22 -16 -8 -3 22 -7 68 -9 78 -4 106 2 62 14 -19
5 -20 14 -20 202 l0 196 53 -3 c48 -3 53 -5 69 -38 l18 -35 0 47 0 48 -180 -1
-180 0 0 -47z"/>
<path d="M2334 2857 c15 -11 17 -33 17 -202 1 -170 -1 -190 -17 -202 -15 -11
-7 -13 55 -13 66 0 71 1 57 16 -12 12 -16 37 -16 105 l0 89 95 0 95 0 0 -95
c0 -90 -1 -96 -22 -105 -25 -10 -18 -11 95 -14 48 -1 63 8 27 17 -19 5 -20 14
-20 200 0 191 0 194 23 205 18 9 7 11 -57 10 -46 0 -73 -4 -65 -9 15 -9 30
-187 17 -192 -4 -1 -48 -1 -98 1 l-90 3 0 84 c0 75 2 85 22 99 21 15 18 16
-57 16 -67 0 -76 -2 -61 -13z"/>
<path d="M2803 2858 c15 -12 17 -33 18 -198 0 -102 0 -191 0 -197 -1 -7 -9
-14 -18 -15 -10 -1 50 -5 132 -8 l150 -5 6 45 c8 57 4 61 -15 16 -17 -41 -37
-49 -117 -44 l-54 3 -3 98 -3 98 60 -2 c55 -2 61 -5 70 -28 8 -22 10 -16 10
34 1 54 -1 57 -12 36 -10 -21 -19 -24 -67 -24 l-55 0 -3 92 c-3 101 -9 93 73
93 71 0 72 0 86 -34 12 -32 12 -32 17 -8 2 13 -1 26 -6 28 -6 2 -9 9 -6 16 4
11 -25 14 -138 15 -119 2 -140 0 -125 -11z"/>
<path d="M3353 2862 c-8 -5 -9 -13 -3 -22 11 -18 13 -360 2 -376 -4 -6 -14
-14 -22 -17 -8 -3 4 -6 28 -6 39 -1 42 1 32 18 -12 24 -14 311 -1 311 8 0 97
-106 219 -261 91 -115 92 -114 92 127 0 198 1 203 22 218 22 15 20 16 -32 16
-52 0 -54 -1 -32 -16 21 -14 22 -22 22 -155 0 -78 -4 -139 -9 -137 -5 2 -66
72 -136 156 -126 151 -146 167 -182 144z"/>
<path d="M4308 2854 c21 -15 22 -21 22 -187 0 -187 -4 -214 -29 -220 -9 -3 20
-5 64 -5 44 0 73 2 65 5 -26 10 -30 25 -30 111 0 79 1 82 23 82 29 0 45 -17
91 -100 53 -95 55 -97 113 -101 l51 -4 -29 29 c-16 17 -29 34 -29 38 0 5 -4 6
-10 3 -5 -3 -7 0 -5 7 3 8 -13 40 -35 71 -22 32 -40 60 -40 62 0 2 15 13 34
25 39 23 61 73 50 114 -3 15 -22 39 -42 54 -34 26 -42 27 -161 29 -115 3 -123
2 -103 -13z m186 -15 c30 -14 50 -67 41 -108 -9 -40 -46 -72 -94 -78 l-41 -6
0 102 0 101 35 0 c19 0 45 -5 59 -11z"/>
<path d="M4672 2827 l-1 -42 14 33 c13 31 16 32 70 32 l55 0 0 -195 c0 -194 0
-196 -22 -205 -17 -6 2 -9 62 -9 47 1 78 3 70 6 -8 3 -18 11 -22 17 -4 6 -8
95 -8 199 l0 187 28 1 c74 3 98 -7 105 -44 2 -12 5 -3 6 20 l1 43 -179 -1
-179 -1 0 -41z"/>
<path d="M5088 2860 c22 -9 22 -11 22 -204 0 -175 -2 -196 -17 -205 -14 -8 1
-10 57 -10 56 0 71 2 58 10 -15 8 -18 25 -18 104 l0 95 95 0 95 0 0 -96 c0
-91 -1 -96 -22 -102 -17 -5 -10 -8 27 -12 28 -3 63 -3 78 -1 22 3 25 5 13 15
-11 9 -15 51 -18 195 -4 169 -3 186 14 203 18 18 16 18 -58 17 -69 -1 -73 -2
-55 -16 18 -12 21 -25 21 -97 0 -45 -2 -85 -4 -87 -2 -2 -45 -3 -95 -1 l-91 3
0 84 c0 75 2 85 22 99 21 15 17 16 -62 15 -61 0 -79 -3 -62 -9z"/>
<path d="M6210 2863 c8 -3 18 -11 22 -17 4 -6 8 -95 8 -198 0 -168 -2 -188
-17 -197 -13 -8 2 -10 57 -10 41 1 67 3 58 6 -12 3 -18 15 -19 36 -1 50 2 152
5 155 2 1 25 3 52 5 43 2 50 -1 61 -23 12 -23 13 -20 12 35 0 43 -3 54 -9 39
-10 -25 -22 -30 -75 -29 l-40 0 -3 93 c-2 83 -1 92 15 92 10 0 25 5 33 10 10
7 -15 9 -80 9 -52 0 -88 -3 -80 -6z"/>
<path d="M6396 2862 c-2 -4 4 -9 15 -9 10 -1 19 2 19 8 0 11 -27 12 -34 1z"/>
<path d="M6444 2859 c-4 -8 1 -9 17 -4 18 4 20 4 10 -4 -11 -7 -12 -13 -4 -23
6 -7 13 -22 16 -33 2 -11 5 1 6 28 1 40 -2 47 -18 47 -11 0 -23 -5 -27 -11z"/>
<path d="M6558 2854 c21 -15 22 -20 22 -204 0 -169 -2 -190 -17 -199 -13 -8 3
-10 62 -10 49 0 72 3 60 8 -18 7 -21 20 -25 117 -3 60 -4 148 -2 196 l3 86 47
4 c60 6 87 -4 107 -39 9 -15 14 -20 11 -10 -3 10 -6 30 -6 43 l0 24 -142 0
c-132 0 -141 -1 -120 -16z m252 -4 c0 -5 -2 -10 -4 -10 -3 0 -8 5 -11 10 -3 6
-1 10 4 10 6 0 11 -4 11 -10z"/>
<path d="M7360 2850 c19 -19 20 -33 20 -197 0 -98 -4 -183 -8 -189 -4 -6 -14
-14 -22 -17 -8 -3 8 -6 35 -7 28 -1 63 -3 79 -4 28 -2 28 -1 7 12 -20 14 -21
22 -21 203 0 183 1 188 22 203 21 15 18 16 -55 16 l-77 0 20 -20z"/>
<path d="M7555 2857 c19 -14 20 -29 23 -200 4 -183 3 -185 -19 -201 -22 -15
-20 -16 56 -16 75 0 78 1 57 16 -20 13 -22 24 -22 95 0 64 3 81 16 86 27 10
43 -7 98 -104 l51 -92 54 -1 c46 0 52 2 39 13 -15 11 -42 51 -107 159 l-23 38
36 21 c68 40 70 123 3 173 -23 17 -46 21 -155 24 -115 4 -125 2 -107 -11z
m203 -26 c41 -34 41 -106 2 -151 -15 -17 -31 -24 -63 -24 l-42 -1 -3 98 -3 97
44 0 c29 0 52 -7 65 -19z"/>
<path d="M6772 2680 c-9 -15 -24 -20 -60 -21 -31 -1 -37 -3 -17 -6 60 -7 76
-14 85 -36 7 -17 9 -10 8 31 -1 28 -2 52 -2 52 -1 0 -7 -9 -14 -20z"/>
<path d="M6896 2485 c-10 -19 -26 -36 -35 -38 -9 -3 9 -5 39 -5 30 0 47 2 36
5 -15 4 -17 11 -13 39 7 44 -3 43 -27 -1z"/>
<path d="M2431 2151 c1 -65 4 -83 8 -56 6 37 8 40 41 43 54 4 80 21 80 53 0
33 -32 59 -70 58 -22 0 -21 -1 9 -12 25 -8 37 -20 42 -40 9 -33 -11 -47 -65
-47 -35 0 -36 1 -36 38 0 21 5 43 10 48 7 7 6 11 -5 11 -12 0 -15 -16 -14 -96z"/>
<path d="M2600 2155 c0 -57 4 -95 10 -95 6 0 10 18 10 39 0 33 4 40 23 44 l22
4 -23 2 c-21 1 -23 5 -20 44 3 40 4 42 39 45 29 2 39 -2 52 -21 10 -15 12 -29
6 -38 -11 -18 -12 -32 0 -25 19 12 18 47 -1 71 -16 21 -28 25 -69 25 l-49 0 0
-95z"/>
<path d="M2833 2243 c15 -2 37 -2 50 0 12 2 0 4 -28 4 -27 0 -38 -2 -22 -4z"/>
<path d="M2950 2156 c0 -57 4 -96 10 -96 6 0 10 32 10 76 0 74 11 91 25 37 8
-33 44 -113 50 -113 7 0 36 72 31 77 -2 3 -11 -8 -19 -24 -12 -21 -17 -24 -21
-13 -3 8 -16 44 -30 80 -14 38 -31 66 -40 68 -14 3 -16 -10 -16 -92z"/>
<path d="M3110 2240 c0 -5 5 -10 10 -10 6 0 10 5 10 10 0 6 -4 10 -10 10 -5 0
-10 -4 -10 -10z"/>
<path d="M3190 2155 c0 -52 4 -95 8 -95 5 0 9 43 11 95 1 60 -2 95 -9 95 -6 0
-10 -37 -10 -95z"/>
<path d="M3270 2210 c-5 -86 -2 -111 15 -130 22 -24 72 -26 103 -4 20 14 22
23 20 97 l-1 82 -6 -76 c-7 -85 -20 -109 -61 -109 -41 0 -54 24 -61 109 -4 60
-6 67 -9 31z"/>
<path d="M3471 2218 c0 -18 3 -27 6 -20 9 22 20 13 37 -28 25 -62 27 -47 3 20
-24 66 -47 80 -46 28z"/>
<path d="M3624 2239 c-4 -7 -3 -9 4 -5 8 5 10 -20 9 -84 -1 -49 1 -90 5 -90 5
0 8 40 8 89 0 84 -9 116 -26 90z"/>
<path d="M3780 2240 c0 -6 13 -8 29 -5 26 4 29 2 33 -24 2 -16 4 -57 4 -90 -1
-34 2 -61 7 -61 4 0 7 41 7 91 l0 91 25 -4 c14 -3 28 -1 31 3 3 5 -27 9 -65 9
-41 0 -71 -4 -71 -10z"/>
<path d="M4182 2174 c-2 -92 11 -114 66 -114 29 0 79 36 67 49 -3 2 -12 -5
-21 -17 -9 -14 -26 -22 -42 -22 -49 0 -57 13 -63 102 l-6 83 -1 -81z"/>
<path d="M4313 2210 c0 -25 2 -35 4 -22 2 12 2 32 0 45 -2 12 -4 2 -4 -23z"/>
<path d="M4447 2239 c42 -12 54 -46 23 -71 -12 -10 -32 -18 -45 -18 -24 0 -50
24 -42 38 3 4 2 14 -3 21 -4 8 -7 -21 -7 -68 1 -44 5 -81 9 -81 4 0 8 18 8 40
0 36 3 40 25 40 18 0 32 -11 50 -40 33 -53 49 -52 22 1 -16 31 -19 43 -9 46
39 15 31 86 -12 97 -35 10 -53 5 -19 -5z"/>
<path d="M4669 2229 l-24 -20 28 17 c15 9 27 18 27 20 0 8 -8 4 -31 -17z"/>
<path d="M4865 2224 c-14 -14 -24 -28 -22 -31 3 -2 16 7 30 21 53 53 117 17
117 -66 0 -25 3 -29 10 -18 6 8 7 29 4 45 -15 73 -89 99 -139 49z"/>
<path d="M5063 2153 l0 -98 6 80 6 80 23 -48 c12 -27 25 -60 28 -73 8 -30 24
-41 35 -23 5 8 19 46 32 84 l22 70 3 -82 c2 -50 7 -83 13 -83 13 0 10 136 -3
162 -5 10 -3 18 5 21 8 4 7 6 -3 6 -11 1 -25 -25 -45 -79 -16 -44 -32 -80 -36
-80 -3 0 -19 35 -35 77 -16 42 -34 78 -40 80 -7 2 -11 -29 -11 -94z"/>
<path d="M5350 2246 c0 -2 9 -6 20 -9 11 -3 18 -1 14 4 -5 9 -34 13 -34 5z"/>
<path d="M5510 2235 c0 -9 4 -14 8 -11 5 3 23 -33 42 -79 18 -47 37 -85 42
-85 5 0 8 3 6 8 -9 18 -28 62 -50 116 -24 59 -48 84 -48 51z"/>
<path d="M5656 2243 c-11 -11 -6 -35 7 -30 7 2 35 -31 65 -75 29 -43 57 -78
62 -78 6 0 10 40 10 97 0 110 -8 123 -11 18 -1 -39 -4 -73 -6 -78 -3 -4 -26
26 -53 67 -50 76 -63 90 -74 79z"/>
<path d="M5866 2210 c15 -22 31 -40 35 -40 5 0 8 -3 8 -7 -5 -31 3 -103 11
-103 6 0 9 16 7 38 -2 20 1 46 6 57 5 11 6 17 2 12 -10 -8 -45 21 -45 38 0 12
-31 45 -43 45 -4 0 5 -18 19 -40z"/>
<path d="M5970 2229 c-7 -11 -10 -23 -7 -25 2 -2 9 7 15 21 14 30 7 33 -8 4z"/>
<path d="M6129 2160 c-4 -52 -5 -97 -3 -99 11 -12 15 15 12 100 l-3 94 -6 -95z"/>
<path d="M6200 2230 c0 -11 5 -18 13 -15 7 2 34 -29 62 -72 28 -43 55 -79 61
-80 7 -2 11 30 13 92 2 69 -1 95 -10 95 -9 0 -10 -19 -5 -74 8 -84 -4 -105
-30 -54 -22 42 -86 128 -96 128 -4 0 -8 -9 -8 -20z"/>
<path d="M6504 2155 c0 -55 1 -81 3 -57 l4 42 43 0 c69 0 103 60 54 94 -32 23
-46 20 -20 -4 42 -40 22 -80 -39 -80 l-38 0 -4 53 c-2 28 -3 7 -3 -48z"/>
<path d="M6710 2236 c0 -8 -3 -23 -6 -33 -3 -10 1 -8 9 6 14 23 15 23 26 5 11
-17 12 -17 7 -1 -3 10 -6 23 -6 28 0 5 -7 9 -15 9 -8 0 -15 -6 -15 -14z"/>
<path d="M6850 2155 c0 -57 4 -95 10 -95 6 0 10 15 10 34 0 18 7 39 15 46 12
10 18 8 34 -11 49 -62 60 -74 65 -68 4 3 -10 27 -30 54 -25 32 -34 52 -28 60
5 7 20 28 34 46 19 28 20 31 5 20 -11 -8 -37 -33 -57 -55 l-37 -41 -1 53 c0
28 -4 52 -10 52 -6 0 -10 -38 -10 -95z"/>
<path d="M7038 2215 c-2 -19 0 -35 4 -35 4 0 8 16 8 35 0 19 -2 35 -4 35 -2 0
-6 -16 -8 -35z"/>
<path d="M7124 2236 c-10 -8 -17 -17 -14 -19 3 -3 16 3 29 14 27 22 15 26 -15
5z"/>
<path d="M7193 2238 c15 -5 27 -15 27 -20 0 -6 3 -8 6 -5 11 11 -17 37 -40 36
-18 0 -17 -2 7 -11z"/>
<path d="M7300 2241 l35 -6 6 -90 5 -90 2 87 c2 87 2 88 30 94 51 11 47 12
-33 12 -53 0 -68 -3 -45 -7z"/>
<path d="M7503 2233 c-4 -10 -21 -53 -39 -95 -18 -43 -28 -78 -23 -78 6 0 15
13 20 30 10 28 14 30 56 26 39 -3 48 -8 61 -32 26 -50 24 -10 -3 52 -15 32
-32 71 -38 87 -14 31 -25 34 -34 10z m27 -28 c25 -66 24 -75 -7 -75 -16 0 -32
3 -36 6 -5 5 23 94 30 94 2 0 8 -11 13 -25z"/>
<path d="M7647 2243 c-11 -10 -8 -183 3 -183 5 0 10 37 12 81 l3 82 53 -82
c29 -44 57 -81 61 -81 5 0 8 44 8 98 -1 90 -1 92 -4 20 -2 -43 -8 -78 -13 -78
-4 0 -21 20 -37 45 -15 25 -31 45 -35 45 -5 0 -8 6 -8 13 0 18 -34 49 -43 40z"/>
<path d="M4089 2214 c57 -73 -22 -186 -91 -131 -19 15 -40 75 -31 91 4 7 2 8
-5 1 -15 -14 1 -83 25 -100 27 -21 77 -18 107 6 21 17 26 29 26 68 0 45 -21
91 -41 91 -6 0 -1 -12 10 -26z"/>
<path d="M2789 2224 c0 -5 -3 -44 -5 -86 l-5 -78 63 2 c63 2 63 2 11 5 l-52 4
0 75 c0 42 -2 78 -5 82 -3 3 -6 1 -7 -4z"/>
<path d="M5400 2220 c0 -5 4 -10 10 -10 5 0 7 -6 4 -14 -3 -8 -1 -17 5 -21 12
-7 15 14 5 39 -7 18 -24 22 -24 6z"/>
<path d="M3121 2194 c0 -11 3 -14 6 -6 3 7 2 16 -1 19 -3 4 -6 -2 -5 -13z"/>
<path d="M5302 2190 c0 -14 2 -19 5 -12 2 6 2 18 0 25 -3 6 -5 1 -5 -13z"/>
<path d="M5650 2133 c0 -44 4 -73 10 -73 13 0 11 112 -1 132 -5 8 -9 -17 -9
-59z"/>
<path d="M6200 2129 c1 -58 3 -70 11 -56 11 18 6 113 -5 125 -3 3 -6 -28 -6
-69z"/>
<path d="M7112 2190 c5 -15 26 -28 81 -49 19 -7 27 -18 27 -35 0 -40 -51 -49
-94 -15 -14 11 -26 16 -26 10 0 -17 43 -41 76 -41 32 0 64 25 64 52 0 21 -29
45 -65 54 -16 3 -39 14 -49 23 -16 13 -18 14 -14 1z"/>
<path d="M3596 2175 c-9 -26 -7 -32 5 -12 6 10 9 21 6 23 -2 3 -7 -2 -11 -11z"/>
<path d="M3473 2120 c0 -36 2 -50 4 -32 2 17 2 47 0 65 -2 17 -4 3 -4 -33z"/>
<path d="M4630 2155 c0 -33 25 -81 45 -89 34 -13 82 -6 100 14 10 11 15 23 11
27 -3 4 -13 -3 -22 -15 -19 -28 -67 -29 -94 -2 -19 19 -23 31 -23 73 0 9 -4
17 -8 17 -5 0 -9 -11 -9 -25z"/>
<path d="M6756 2160 c9 -38 38 -99 46 -100 9 0 -2 30 -32 85 -13 25 -18 30
-14 15z"/>
<path d="M4841 2157 c-1 -22 29 -90 37 -83 3 3 0 11 -6 18 -5 7 -15 29 -20 48
-6 19 -11 27 -11 17z"/>
<path d="M5394 2161 c-5 -5 -22 -11 -39 -14 -27 -4 -27 -4 7 -6 20 0 40 4 43
10 9 14 1 21 -11 10z"/>
<path d="M7036 2154 c-10 -25 -7 -94 4 -94 6 0 10 25 10 55 0 57 -3 66 -14 39z"/>
<path d="M2683 2153 c-7 -3 -2 -20 14 -49 24 -43 42 -61 28 -26 -4 9 -13 31
-19 48 -6 17 -16 29 -23 27z"/>
<path d="M2838 2153 c12 -2 32 -2 45 0 12 2 2 4 -23 4 -25 0 -35 -2 -22 -4z"/>
<path d="M3123 2105 c0 -27 2 -38 4 -22 2 15 2 37 0 50 -2 12 -4 0 -4 -28z"/>
<path d="M5298 2105 c-2 -25 0 -45 3 -45 4 0 9 20 11 45 2 25 0 45 -3 45 -4 0
-9 -20 -11 -45z"/>
<path d="M5470 2137 c0 -3 -7 -21 -15 -41 -8 -20 -12 -36 -8 -36 13 1 41 70
32 76 -5 3 -9 3 -9 1z"/>
<path d="M6675 2130 c3 -5 2 -10 -2 -10 -5 0 -14 -13 -20 -30 -16 -42 0 -38
20 5 20 42 20 45 6 45 -5 0 -7 -4 -4 -10z"/>
<path d="M3538 2115 c-7 -8 11 -55 22 -55 12 0 30 49 20 55 -6 4 -10 -1 -10
-9 0 -21 -18 -21 -22 0 -2 9 -6 13 -10 9z"/>
<path d="M4976 2095 c-3 -9 -16 -20 -28 -25 -15 -5 -17 -9 -7 -9 8 -1 26 10
39 24 13 14 19 25 13 25 -6 0 -13 -7 -17 -15z"/>
</g>
</svg>
